<svg version="1.1" viewBox="0.0 0.0 774.3254593175853 198.0734908136483" fill="none" stroke="none" stroke-linecap="square" stroke-miterlimit="10" xmlns:xlink="http://www.w3.org/1999/xlink" xmlns="http://www.w3.org/2000/svg"><clipPath id="p.0"><path d="m0 0l774.32544 0l0 198.07349l-774.32544 0l0 -198.07349z" clip-rule="nonzero"/></clipPath><g clip-path="url(#p.0)"><path fill="#000000" fill-opacity="0.0" d="m0 0l774.32544 0l0 198.07349l-774.32544 0z" fill-rule="evenodd"/><path fill="#38761d" d="m489.19925 17.73624c-3.8753052 0 -7.158844 1.3840446 -9.850555 4.152128c-2.691742 2.7489948 -4.0375977 6.0611515 -4.0375977 9.936474c0 3.8753185 1.3458557 7.158842 4.0375977 9.850565c2.6917114 2.6917267 5.9752502 4.037586 9.850555 4.037586c3.8753357 0 7.1875 -1.3458595 9.936493 -4.037586c2.7680664 -2.6917229 4.15213 -5.9752464 4.15213 -9.850565c0 -3.8753223 -1.3840637 -7.187479 -4.15213 -9.936474c-2.748993 -2.7680836 -6.061157 -4.152128 -9.936493 -4.152128zm196.34506 45.21525c2.9399414 0 4.409851 2.4053688 4.409851 7.216114c0 4.8107376 -1.2026367 9.421036 -3.6080322 13.830879c-2.4053955 4.3907547 -5.574341 7.9988174 -9.506958 10.824173c-3.9325562 2.8062592 -8.122864 4.2666626 -12.570923 4.3812103c1.9854126 -9.258766 5.001648 -17.610756 9.048767 -25.055946c4.047119 -7.4642944 8.122925 -11.19643 12.227295 -11.19643zm-316.67563 -42.924416l-26.058167 3.52215l-18.775574 88.13966l-0.046325684 0c-5.3834534 5.9943466 -10.337372 10.461464 -14.861755 13.401352c-4.5052795 2.9208145 -9.92691 4.381218 -16.264893 4.381218c-4.467102 0 -7.7029114 -1.0213318 -9.707397 -3.0639877c-1.9853821 -2.0617447 -2.9780579 -5.965706 -2.9780579 -11.711868c0 -6.567047 1.1167603 -13.954971 3.3503418 -22.163773c2.233551 -8.22789 5.1066284 -15.21492 8.619232 -20.96109c3.5317078 -5.7461624 7.053833 -8.619244 10.566467 -8.619244c1.6417542 0 2.8730774 0.64907074 3.6939392 1.9472008c0.82089233 1.2981339 1.2313232 3.0544357 1.2313232 5.2689133c0 3.0544357 -0.70632935 6.5193176 -2.1190186 10.394638c2.1190186 1.3935852 4.171234 2.0903778 6.156616 2.0903778c2.7108154 0 4.9443665 -1.1072388 6.7006836 -3.321701c1.7562866 -2.2335587 2.63443 -5.402542 2.63443 -9.506943c0 -4.6961975 -1.4985657 -8.561974 -4.4957275 -11.597324c-2.9780884 -3.0544395 -7.9892883 -4.5816574 -15.033569 -4.5816574c-10.919617 0 -19.930237 3.550785 -27.0318 10.652355c-7.082489 7.0824814 -12.236847 15.491737 -15.463104 25.22776c-3.226242 9.736023 -4.8393707 18.651176 -4.8393707 26.74543c0 0.20304108 0.001083374 0.40493774 0.0032196045 0.60570526l0 0c-1.3537903 2.7397537 -2.7075806 4.914589 -4.061386 6.5245056c-2.0999298 2.5199127 -4.906204 3.779869 -8.418793 3.779869c-2.596283 0 -4.419388 -0.63952637 -5.4693604 -1.9185715c-1.0499573 -1.2981415 -1.5749512 -3.121254 -1.5749512 -5.4693527c0 -2.0044785 0.38182068 -4.7343903 1.1454163 -8.18972c0.76361084 -3.45533 1.6131134 -7.006111 2.5485535 -10.652351c1.5272217 -5.9752426 2.7012787 -11.043701 3.5221405 -15.205383c0.8208771 -4.1616745 1.2313232 -7.941536 1.2313232 -11.339607c0 -6.700676 -1.7658386 -11.692772 -5.297531 -14.976295c-3.5126038 -3.2835236 -8.256531 -4.9252853 -14.231781 -4.9252853c-7.8651733 0 -14.728119 3.2835274 -20.588837 9.850571l1.9472046 -9.1346855l-25.3423 0l-11.97847 56.525158l0 0c-1.4109802 4.670006 -3.3143463 8.412056 -5.710129 11.22612c-2.4053802 2.8062668 -5.249817 4.209404 -8.53334 4.209404c-2.577179 0 -4.42894 -0.49635315 -5.5552673 -1.4890366c-1.1072235 -1.011795 -1.6608429 -2.68219 -1.6608429 -5.0111923c0 -2.0044785 0.2386322 -3.8848648 0.71588135 -5.6411667l12.65683 -59.819286l-25.3423 0l-11.9409485 56.468945c-1.4126663 4.8107452 -3.293068 8.600159 -5.6411667 11.36824c-2.3480988 2.7490005 -5.1639023 4.123497 -8.447433 4.123497c-3.5126114 0 -5.2689056 -2.4053726 -5.2689056 -7.21611c0 -1.5272293 0.17181396 -3.168991 0.51543427 -4.9252853l12.685471 -59.819286l-25.3423 0l-11.969589 56.468945c-0.9354248 4.696205 -1.4031296 8.514259 -1.4031296 11.454147c0 7.025215 1.7276611 12.303673 5.1829987 15.835365c3.4553452 3.5125885 7.9988327 5.2689056 13.63044 5.2689056c4.5816574 0 9.067871 -1.174057 13.458618 -3.5221558c4.409851 -2.3480988 8.609711 -6.748398 12.599564 -13.200905c0.57270813 5.517082 2.3576355 9.688286 5.3548126 12.513664c2.9971771 2.8062592 7.015671 4.2093964 12.055496 4.2093964c6.4524994 0 12.866821 -2.2526398 19.242966 -6.75795c1.382431 -0.97802734 2.7171326 -2.1464844 4.0041046 -3.5054016l0 0l-1.9504089 9.203842l25.31366 0l11.969589 -56.46895c1.412674 -4.8107376 3.2930603 -8.705154 5.641159 -11.683228c2.3480988 -2.9971695 5.0398254 -4.495758 8.07518 -4.495758c4.2189484 0 6.328415 2.9876251 6.328415 8.962875c0 2.4626389 -0.41044617 5.688896 -1.2313232 9.678749c-0.8208771 3.9898682 -1.6990204 8.037003 -2.6344452 12.141396c-0.22909546 0.8208771 -0.6681671 2.7012634 -1.3172302 5.6411743c-0.6490631 2.920807 -1.2695007 5.937065 -1.8612976 9.048775c-0.57270813 3.111702 -0.8590698 5.8988876 -0.8590698 8.3615265c0 5.6316147 1.6704102 10.356453 5.0112 14.174507c3.3407745 3.7989502 8.590607 5.6984406 15.749451 5.6984406c6.0897827 0 11.979111 -2.1953735 17.668015 -6.586136c2.5652466 -1.9884949 4.994629 -4.8406525 7.288162 -8.5564575l0 0c1.2016296 3.3947296 2.9694214 6.189621 5.3033447 8.384644c4.81073 4.50531 11.559143 6.75795 20.245209 6.75795c15.227234 0 28.508118 -6.809311 39.84262 -20.427895l0 0l-4.125885 19.368385l25.31369 0l11.969574 -56.46895c1.4126892 -4.8107376 3.2930603 -8.705154 5.6411743 -11.683228c2.3480835 -2.9971695 5.0398254 -4.495758 8.075165 -4.495758c4.218933 0 6.32843 2.9876251 6.32843 8.962875c0 2.4626389 -0.41046143 5.688896 -1.2313232 9.678749c-0.82089233 3.9898682 -1.6990356 8.037003 -2.6344604 12.141396c-0.22909546 0.8208771 -0.66815186 2.7012634 -1.3172302 5.6411743c-0.64907837 2.920807 -1.2695007 5.937065 -1.8612976 9.048775c-0.5727234 3.111702 -0.8590698 5.8988876 -0.8590698 8.3615265c0 5.6316147 1.6704102 10.356453 5.0112 14.174507c3.3407898 3.7989502 8.590607 5.6984406 15.749451 5.6984406c6.0897827 0 11.979126 -2.1953735 17.66803 -6.586136c2.4115295 -1.8693542 4.7030334 -4.5019836 6.8744507 -7.897888l0 0c0.7791443 3.8246613 2.303009 6.8963623 4.5716248 9.215118c3.4553528 3.5125885 7.99881 5.2689056 13.630432 5.2689056c6.68161 0 13.420441 -2.2526398 20.216583 -6.75795c3.0506287 -2.0252075 5.8526306 -4.8670654 8.406036 -8.525558l0 0c0.7232666 4.198242 2.2971802 7.5364532 4.7217712 10.014603c3.4553223 3.5125885 7.99881 5.2689056 13.630432 5.2689056c6.6815796 0 13.420441 -2.2526398 20.216583 -6.75795c1.6499634 -1.0953674 3.227234 -2.4296265 4.7317505 -4.0027924l0 0l-2.0558472 9.701233l25.31369 0l11.969543 -56.46895c1.4127197 -4.9252853 3.3217163 -8.886505 5.727112 -11.883675c2.4053345 -2.9971771 5.249817 -4.495758 8.533325 -4.495758c3.5125732 0 5.268921 2.586731 5.268921 7.7601852c0 1.5272217 -0.17181396 2.9876251 -0.5154419 4.3812103l-12.8573 60.706985l25.342285 0l11.9696045 -56.46895c1.3936157 -4.8107376 3.2644653 -8.705154 5.612549 -11.683228c2.3480835 -2.9971695 5.0493774 -4.495758 8.103821 -4.495758c4.218933 0 6.328369 2.9876251 6.328369 8.962875c0 2.4626389 -0.4104004 5.688896 -1.2313232 9.678749c-0.8208618 3.9898682 -1.6989746 8.037003 -2.6343994 12.141396c-0.22912598 0.8208771 -0.6682129 2.7012634 -1.3172607 5.6411743c-0.64904785 2.920807 -1.2694702 5.937065 -1.8612671 9.048775c-0.5727539 3.111702 -0.8590698 5.8988876 -0.8590698 8.3615265c0 5.6316147 1.6704102 10.356453 5.0111694 14.174507c3.3408203 3.7989502 8.590637 5.6984406 15.749451 5.6984406c6.0897827 0 11.979126 -2.1953735 17.66803 -6.586136c2.5230713 -1.9558105 4.912842 -4.747116 7.1693115 -8.373901l0 0c1.2000122 3.3125153 2.946045 6.0465546 5.237976 8.202087c4.81073 4.50531 11.49231 6.75795 20.044739 6.75795c17.123962 0 27.270386 -8.676514 30.439392 -26.029549l0 0c-3.0544434 2.691719 -6.462036 4.9157333 -10.222839 6.672035c-3.7416992 1.7563095 -7.2542725 2.6344528 -10.537781 2.6344528c-7.2733765 0 -10.910095 -4.8680115 -10.910095 -14.604034c0 -0.9354172 0.12408447 -2.6917267 0.37225342 -5.2689056c7.0252075 -0.47725677 13.640015 -2.3862762 19.8443 -5.7270737c6.2234497 -3.3407898 11.215515 -7.7601852 14.976318 -13.258179c3.7608032 -5.517082 5.6411743 -11.559143 5.6411743 -18.12619c0 -11.263241 -6.4525146 -16.894863 -19.357483 -16.894863c-11.03418 0 -20.130676 3.550785 -27.28955 10.652355c-7.1397095 7.0824814 -12.294067 15.491737 -15.463074 25.22776c-3.1690063 9.736023 -4.753479 18.651176 -4.753479 26.74543c0 0.31760406 0.0026245117 0.63243103 0.007873535 0.94446564l0 0c-1.2903442 2.5808334 -2.5842896 4.642746 -3.881836 6.1857452c-2.0999146 2.5199127 -4.9157104 3.779869 -8.447388 3.779869c-2.5772095 0 -4.4003296 -0.63952637 -5.4693604 -1.9185715c-1.0499878 -1.2981415 -1.5749512 -3.121254 -1.5749512 -5.4693527c0 -2.0044785 0.3817749 -4.7343903 1.1453857 -8.18972c0.76361084 -3.45533 1.6131592 -7.006111 2.548584 -10.652351c1.5272217 -5.9752426 2.701233 -11.043701 3.5221558 -15.205383c0.8208618 -4.1616745 1.2313232 -7.941536 1.2313232 -11.339607c0 -6.700676 -1.7563477 -11.692772 -5.268921 -14.976295c-3.5126343 -3.2835236 -8.266113 -4.9252853 -14.260437 -4.9252853c-9.850586 0 -18.002075 4.9921 -24.45459 14.976303c-1.7562866 -10.098747 -7.7888184 -15.148113 -18.097534 -15.148113c-8.342468 0 -15.501282 3.3407936 -21.476562 10.022381l1.9472046 -9.1346855l-25.342285 0l-11.966553 56.468945l-0.01586914 0c-1.2790527 4.5816574 -3.3885193 8.313812 -6.3283997 11.196434c-2.9208374 2.863533 -6.089813 4.2953033 -9.506958 4.2953033c-2.577179 0 -4.419403 -0.49635315 -5.5266113 -1.4890366c-1.1072388 -1.011795 -1.6608582 -2.68219 -1.6608582 -5.0111923c0 -2.0044785 0.22906494 -3.8848648 0.68725586 -5.6411667l12.685455 -59.819286l-25.342316 0l-11.969574 56.468945l-0.012817383 0c-1.2790222 4.5816574 -3.3885193 8.313812 -6.3283997 11.196434c-2.920807 2.863533 -6.0897827 4.2953033 -9.506958 4.2953033c-2.577179 0 -4.4193726 -0.49635315 -5.5266113 -1.4890366c-1.1072388 -1.011795 -1.6608582 -2.68219 -1.6608582 -5.0111923c0 -2.0044785 0.22909546 -3.8848648 0.68725586 -5.6411667l11.253693 -52.774986l10.566467 0l1.4031067 -7.0443l-10.537811 0l5.9561768 -27.804941l-26.029572 3.52215l-5.2688904 24.282791l-5.8129883 0l-1.4031372 7.0443l5.8129883 0l-10.566437 49.424644c-0.0026550293 0.013298035 -0.0053100586 0.02659607 -0.00793457 0.039878845l0 0c-2.1137085 5.267746 -4.2273865 9.158409 -6.3410645 11.671989c-2.099945 2.5199127 -4.9062195 3.779869 -8.418823 3.779869c-2.5962524 0 -4.4193726 -0.63952637 -5.46933 -1.9185715c-1.0499878 -1.2981415 -1.5749512 -3.121254 -1.5749512 -5.4693527c0 -2.0044785 0.38180542 -4.7343903 1.1454163 -8.18972c0.76361084 -3.45533 1.6131287 -7.006111 2.548523 -10.652351c1.5272217 -5.9752426 2.701294 -11.043701 3.5221558 -15.205383c0.82089233 -4.1616745 1.2313232 -7.941536 1.2313232 -11.339607c0 -6.700676 -1.7658386 -11.692772 -5.2975464 -14.976295c-3.5126038 -3.2835236 -8.256531 -4.9252853 -14.231781 -4.9252853c-7.8651733 0 -14.728119 3.2835274 -20.588806 9.850571l9.5069275 -44.327553zm-294.00812 -7.044301c-9.602386 0 -19.214333 2.2049227 -28.83582 6.61477c-9.621483 4.3907566 -17.515308 10.136919 -23.681448 17.238493c-6.147068 7.10157 -9.220588 14.403587 -9.220588 21.906055c0 6.0897903 1.5463095 10.461456 4.6389303 13.114998c3.1117191 2.6344528 7.8365536 3.951683 14.174507 3.951683c0 -0.22908783 -0.41043282 -1.1931458 -1.2313213 -2.8921738c-0.8208904 -1.7181244 -1.2313213 -4.743927 -1.2313213 -9.077412c0 -9.37331 2.1381168 -17.31485 6.414324 -23.824627c4.2953033 -6.5097694 10.366001 -11.349148 18.212093 -14.518131l0 0l-26.201363 121.90076c0.93543243 -0.11454773 2.2812939 -0.17181396 4.037588 -0.17181396c5.0398235 0 9.993742 0.99269104 14.861753 2.9780731c4.8680153 2.004486 9.382866 4.438492 13.544529 7.3020325c4.1807632 2.8826141 9.201492 6.6720276 15.062202 11.36824c7.846092 6.223419 14.317688 10.824158 19.41478 13.802246c5.1161957 2.9971619 10.308739 4.495743 15.577644 4.495743c4.8107376 0 8.829231 -2.4626312 12.055489 -7.387924c3.2262573 -4.9252777 5.307106 -11.673676 6.2425156 -20.245193l0 0c-4.5625687 1.8899231 -9.487846 2.8349 -14.775856 2.8349c-5.860718 0 -11.492348 -1.08815 -16.894867 -3.2644348c-5.3834457 -2.1762848 -11.883675 -5.316635 -19.500687 -9.421036c-4.9252853 -2.6917267 -9.125145 -4.829834 -12.599564 -6.414322c-3.4553413 -1.5845032 -6.8247795 -2.7871857 -10.10828 -3.6080627l27.089054 -126.31061c-3.0544434 -0.2481718 -5.4025497 -0.37225914 -7.0442963 -0.37225914z" fill-rule="evenodd"/><path fill="#38761d" d="m761.1905 10.892387l-27.08905 3.693963l-13.372742 87.96785l14.947693 0l25.5141 -91.66181zm-37.999146 105.37815c-3.8753052 0 -7.1875 1.3554153 -9.936462 4.066223c-2.7490234 2.6917267 -4.123474 5.965706 -4.123474 9.82193c0 3.8753357 1.3744507 7.1970367 4.123474 9.965118c2.7489624 2.748993 6.061157 4.1234894 9.936462 4.1234894c3.8753052 0 7.1588745 -1.3744965 9.850586 -4.1234894c2.7108154 -2.7680817 4.066223 -6.0897827 4.066223 -9.965118c0 -3.856224 -1.3554077 -7.1302032 -4.066223 -9.82193c-2.6917114 -2.7108078 -5.975281 -4.066223 -9.850586 -4.066223z" fill-rule="evenodd"/><path stroke="#93c47d" stroke-width="1.0" stroke-linejoin="round" stroke-linecap="butt" d="m489.19925 17.73624c-3.8753052 0 -7.158844 1.3840446 -9.850555 4.152128c-2.691742 2.7489948 -4.0375977 6.0611515 -4.0375977 9.936474c0 3.8753185 1.3458557 7.158842 4.0375977 9.850565c2.6917114 2.6917267 5.9752502 4.037586 9.850555 4.037586c3.8753357 0 7.1875 -1.3458595 9.936493 -4.037586c2.7680664 -2.6917229 4.15213 -5.9752464 4.15213 -9.850565c0 -3.8753223 -1.3840637 -7.187479 -4.15213 -9.936474c-2.748993 -2.7680836 -6.061157 -4.152128 -9.936493 -4.152128zm196.34506 45.21525c2.9399414 0 4.409851 2.4053688 4.409851 7.216114c0 4.8107376 -1.2026367 9.421036 -3.6080322 13.830879c-2.4053955 4.3907547 -5.574341 7.9988174 -9.506958 10.824173c-3.9325562 2.8062592 -8.122864 4.2666626 -12.570923 4.3812103c1.9854126 -9.258766 5.001648 -17.610756 9.048767 -25.055946c4.047119 -7.4642944 8.122925 -11.19643 12.227295 -11.19643zm-316.67563 -42.924416l-26.058167 3.52215l-18.775574 88.13966l-0.046325684 0c-5.3834534 5.9943466 -10.337372 10.461464 -14.861755 13.401352c-4.5052795 2.9208145 -9.92691 4.381218 -16.264893 4.381218c-4.467102 0 -7.7029114 -1.0213318 -9.707397 -3.0639877c-1.9853821 -2.0617447 -2.9780579 -5.965706 -2.9780579 -11.711868c0 -6.567047 1.1167603 -13.954971 3.3503418 -22.163773c2.233551 -8.22789 5.1066284 -15.21492 8.619232 -20.96109c3.5317078 -5.7461624 7.053833 -8.619244 10.566467 -8.619244c1.6417542 0 2.8730774 0.64907074 3.6939392 1.9472008c0.82089233 1.2981339 1.2313232 3.0544357 1.2313232 5.2689133c0 3.0544357 -0.70632935 6.5193176 -2.1190186 10.394638c2.1190186 1.3935852 4.171234 2.0903778 6.156616 2.0903778c2.7108154 0 4.9443665 -1.1072388 6.7006836 -3.321701c1.7562866 -2.2335587 2.63443 -5.402542 2.63443 -9.506943c0 -4.6961975 -1.4985657 -8.561974 -4.4957275 -11.597324c-2.9780884 -3.0544395 -7.9892883 -4.5816574 -15.033569 -4.5816574c-10.919617 0 -19.930237 3.550785 -27.0318 10.652355c-7.082489 7.0824814 -12.236847 15.491737 -15.463104 25.22776c-3.226242 9.736023 -4.8393707 18.651176 -4.8393707 26.74543c0 0.20304108 0.001083374 0.40493774 0.0032196045 0.60570526l0 0c-1.3537903 2.7397537 -2.7075806 4.914589 -4.061386 6.5245056c-2.0999298 2.5199127 -4.906204 3.779869 -8.418793 3.779869c-2.596283 0 -4.419388 -0.63952637 -5.4693604 -1.9185715c-1.0499573 -1.2981415 -1.5749512 -3.121254 -1.5749512 -5.4693527c0 -2.0044785 0.38182068 -4.7343903 1.1454163 -8.18972c0.76361084 -3.45533 1.6131134 -7.006111 2.5485535 -10.652351c1.5272217 -5.9752426 2.7012787 -11.043701 3.5221405 -15.205383c0.8208771 -4.1616745 1.2313232 -7.941536 1.2313232 -11.339607c0 -6.700676 -1.7658386 -11.692772 -5.297531 -14.976295c-3.5126038 -3.2835236 -8.256531 -4.9252853 -14.231781 -4.9252853c-7.8651733 0 -14.728119 3.2835274 -20.588837 9.850571l1.9472046 -9.1346855l-25.3423 0l-11.97847 56.525158l0 0c-1.4109802 4.670006 -3.3143463 8.412056 -5.710129 11.22612c-2.4053802 2.8062668 -5.249817 4.209404 -8.53334 4.209404c-2.577179 0 -4.42894 -0.49635315 -5.5552673 -1.4890366c-1.1072235 -1.011795 -1.6608429 -2.68219 -1.6608429 -5.0111923c0 -2.0044785 0.2386322 -3.8848648 0.71588135 -5.6411667l12.65683 -59.819286l-25.3423 0l-11.9409485 56.468945c-1.4126663 4.8107452 -3.293068 8.600159 -5.6411667 11.36824c-2.3480988 2.7490005 -5.1639023 4.123497 -8.447433 4.123497c-3.5126114 0 -5.2689056 -2.4053726 -5.2689056 -7.21611c0 -1.5272293 0.17181396 -3.168991 0.51543427 -4.9252853l12.685471 -59.819286l-25.3423 0l-11.969589 56.468945c-0.9354248 4.696205 -1.4031296 8.514259 -1.4031296 11.454147c0 7.025215 1.7276611 12.303673 5.1829987 15.835365c3.4553452 3.5125885 7.9988327 5.2689056 13.63044 5.2689056c4.5816574 0 9.067871 -1.174057 13.458618 -3.5221558c4.409851 -2.3480988 8.609711 -6.748398 12.599564 -13.200905c0.57270813 5.517082 2.3576355 9.688286 5.3548126 12.513664c2.9971771 2.8062592 7.015671 4.2093964 12.055496 4.2093964c6.4524994 0 12.866821 -2.2526398 19.242966 -6.75795c1.382431 -0.97802734 2.7171326 -2.1464844 4.0041046 -3.5054016l0 0l-1.9504089 9.203842l25.31366 0l11.969589 -56.46895c1.412674 -4.8107376 3.2930603 -8.705154 5.641159 -11.683228c2.3480988 -2.9971695 5.0398254 -4.495758 8.07518 -4.495758c4.2189484 0 6.328415 2.9876251 6.328415 8.962875c0 2.4626389 -0.41044617 5.688896 -1.2313232 9.678749c-0.8208771 3.9898682 -1.6990204 8.037003 -2.6344452 12.141396c-0.22909546 0.8208771 -0.6681671 2.7012634 -1.3172302 5.6411743c-0.6490631 2.920807 -1.2695007 5.937065 -1.8612976 9.048775c-0.57270813 3.111702 -0.8590698 5.8988876 -0.8590698 8.3615265c0 5.6316147 1.6704102 10.356453 5.0112 14.174507c3.3407745 3.7989502 8.590607 5.6984406 15.749451 5.6984406c6.0897827 0 11.979111 -2.1953735 17.668015 -6.586136c2.5652466 -1.9884949 4.994629 -4.8406525 7.288162 -8.5564575l0 0c1.2016296 3.3947296 2.9694214 6.189621 5.3033447 8.384644c4.81073 4.50531 11.559143 6.75795 20.245209 6.75795c15.227234 0 28.508118 -6.809311 39.84262 -20.427895l0 0l-4.125885 19.368385l25.31369 0l11.969574 -56.46895c1.4126892 -4.8107376 3.2930603 -8.705154 5.6411743 -11.683228c2.3480835 -2.9971695 5.0398254 -4.495758 8.075165 -4.495758c4.218933 0 6.32843 2.9876251 6.32843 8.962875c0 2.4626389 -0.41046143 5.688896 -1.2313232 9.678749c-0.82089233 3.9898682 -1.6990356 8.037003 -2.6344604 12.141396c-0.22909546 0.8208771 -0.66815186 2.7012634 -1.3172302 5.6411743c-0.64907837 2.920807 -1.2695007 5.937065 -1.8612976 9.048775c-0.5727234 3.111702 -0.8590698 5.8988876 -0.8590698 8.3615265c0 5.6316147 1.6704102 10.356453 5.0112 14.174507c3.3407898 3.7989502 8.590607 5.6984406 15.749451 5.6984406c6.0897827 0 11.979126 -2.1953735 17.66803 -6.586136c2.4115295 -1.8693542 4.7030334 -4.5019836 6.8744507 -7.897888l0 0c0.7791443 3.8246613 2.303009 6.8963623 4.5716248 9.215118c3.4553528 3.5125885 7.99881 5.2689056 13.630432 5.2689056c6.68161 0 13.420441 -2.2526398 20.216583 -6.75795c3.0506287 -2.0252075 5.8526306 -4.8670654 8.406036 -8.525558l0 0c0.7232666 4.198242 2.2971802 7.5364532 4.7217712 10.014603c3.4553223 3.5125885 7.99881 5.2689056 13.630432 5.2689056c6.6815796 0 13.420441 -2.2526398 20.216583 -6.75795c1.6499634 -1.0953674 3.227234 -2.4296265 4.7317505 -4.0027924l0 0l-2.0558472 9.701233l25.31369 0l11.969543 -56.46895c1.4127197 -4.9252853 3.3217163 -8.886505 5.727112 -11.883675c2.4053345 -2.9971771 5.249817 -4.495758 8.533325 -4.495758c3.5125732 0 5.268921 2.586731 5.268921 7.7601852c0 1.5272217 -0.17181396 2.9876251 -0.5154419 4.3812103l-12.8573 60.706985l25.342285 0l11.9696045 -56.46895c1.3936157 -4.8107376 3.2644653 -8.705154 5.612549 -11.683228c2.3480835 -2.9971695 5.0493774 -4.495758 8.103821 -4.495758c4.218933 0 6.328369 2.9876251 6.328369 8.962875c0 2.4626389 -0.4104004 5.688896 -1.2313232 9.678749c-0.8208618 3.9898682 -1.6989746 8.037003 -2.6343994 12.141396c-0.22912598 0.8208771 -0.6682129 2.7012634 -1.3172607 5.6411743c-0.64904785 2.920807 -1.2694702 5.937065 -1.8612671 9.048775c-0.5727539 3.111702 -0.8590698 5.8988876 -0.8590698 8.3615265c0 5.6316147 1.6704102 10.356453 5.0111694 14.174507c3.3408203 3.7989502 8.590637 5.6984406 15.749451 5.6984406c6.0897827 0 11.979126 -2.1953735 17.66803 -6.586136c2.5230713 -1.9558105 4.912842 -4.747116 7.1693115 -8.373901l0 0c1.2000122 3.3125153 2.946045 6.0465546 5.237976 8.202087c4.81073 4.50531 11.49231 6.75795 20.044739 6.75795c17.123962 0 27.270386 -8.676514 30.439392 -26.029549l0 0c-3.0544434 2.691719 -6.462036 4.9157333 -10.222839 6.672035c-3.7416992 1.7563095 -7.2542725 2.6344528 -10.537781 2.6344528c-7.2733765 0 -10.910095 -4.8680115 -10.910095 -14.604034c0 -0.9354172 0.12408447 -2.6917267 0.37225342 -5.2689056c7.0252075 -0.47725677 13.640015 -2.3862762 19.8443 -5.7270737c6.2234497 -3.3407898 11.215515 -7.7601852 14.976318 -13.258179c3.7608032 -5.517082 5.6411743 -11.559143 5.6411743 -18.12619c0 -11.263241 -6.4525146 -16.894863 -19.357483 -16.894863c-11.03418 0 -20.130676 3.550785 -27.28955 10.652355c-7.1397095 7.0824814 -12.294067 15.491737 -15.463074 25.22776c-3.1690063 9.736023 -4.753479 18.651176 -4.753479 26.74543c0 0.31760406 0.0026245117 0.63243103 0.007873535 0.94446564l0 0c-1.2903442 2.5808334 -2.5842896 4.642746 -3.881836 6.1857452c-2.0999146 2.5199127 -4.9157104 3.779869 -8.447388 3.779869c-2.5772095 0 -4.4003296 -0.63952637 -5.4693604 -1.9185715c-1.0499878 -1.2981415 -1.5749512 -3.121254 -1.5749512 -5.4693527c0 -2.0044785 0.3817749 -4.7343903 1.1453857 -8.18972c0.76361084 -3.45533 1.6131592 -7.006111 2.548584 -10.652351c1.5272217 -5.9752426 2.701233 -11.043701 3.5221558 -15.205383c0.8208618 -4.1616745 1.2313232 -7.941536 1.2313232 -11.339607c0 -6.700676 -1.7563477 -11.692772 -5.268921 -14.976295c-3.5126343 -3.2835236 -8.266113 -4.9252853 -14.260437 -4.9252853c-9.850586 0 -18.002075 4.9921 -24.45459 14.976303c-1.7562866 -10.098747 -7.7888184 -15.148113 -18.097534 -15.148113c-8.342468 0 -15.501282 3.3407936 -21.476562 10.022381l1.9472046 -9.1346855l-25.342285 0l-11.966553 56.468945l-0.01586914 0c-1.2790527 4.5816574 -3.3885193 8.313812 -6.3283997 11.196434c-2.9208374 2.863533 -6.089813 4.2953033 -9.506958 4.2953033c-2.577179 0 -4.419403 -0.49635315 -5.5266113 -1.4890366c-1.1072388 -1.011795 -1.6608582 -2.68219 -1.6608582 -5.0111923c0 -2.0044785 0.22906494 -3.8848648 0.68725586 -5.6411667l12.685455 -59.819286l-25.342316 0l-11.969574 56.468945l-0.012817383 0c-1.2790222 4.5816574 -3.3885193 8.313812 -6.3283997 11.196434c-2.920807 2.863533 -6.0897827 4.2953033 -9.506958 4.2953033c-2.577179 0 -4.4193726 -0.49635315 -5.5266113 -1.4890366c-1.1072388 -1.011795 -1.6608582 -2.68219 -1.6608582 -5.0111923c0 -2.0044785 0.22909546 -3.8848648 0.68725586 -5.6411667l11.253693 -52.774986l10.566467 0l1.4031067 -7.0443l-10.537811 0l5.9561768 -27.804941l-26.029572 3.52215l-5.2688904 24.282791l-5.8129883 0l-1.4031372 7.0443l5.8129883 0l-10.566437 49.424644c-0.0026550293 0.013298035 -0.0053100586 0.02659607 -0.00793457 0.039878845l0 0c-2.1137085 5.267746 -4.2273865 9.158409 -6.3410645 11.671989c-2.099945 2.5199127 -4.9062195 3.779869 -8.418823 3.779869c-2.5962524 0 -4.4193726 -0.63952637 -5.46933 -1.9185715c-1.0499878 -1.2981415 -1.5749512 -3.121254 -1.5749512 -5.4693527c0 -2.0044785 0.38180542 -4.7343903 1.1454163 -8.18972c0.76361084 -3.45533 1.6131287 -7.006111 2.548523 -10.652351c1.5272217 -5.9752426 2.701294 -11.043701 3.5221558 -15.205383c0.82089233 -4.1616745 1.2313232 -7.941536 1.2313232 -11.339607c0 -6.700676 -1.7658386 -11.692772 -5.2975464 -14.976295c-3.5126038 -3.2835236 -8.256531 -4.9252853 -14.231781 -4.9252853c-7.8651733 0 -14.728119 3.2835274 -20.588806 9.850571l9.5069275 -44.327553zm-294.00812 -7.044301c-9.602386 0 -19.214333 2.2049227 -28.83582 6.61477c-9.621483 4.3907566 -17.515308 10.136919 -23.681448 17.238493c-6.147068 7.10157 -9.220588 14.403587 -9.220588 21.906055c0 6.0897903 1.5463095 10.461456 4.6389303 13.114998c3.1117191 2.6344528 7.8365536 3.951683 14.174507 3.951683c0 -0.22908783 -0.41043282 -1.1931458 -1.2313213 -2.8921738c-0.8208904 -1.7181244 -1.2313213 -4.743927 -1.2313213 -9.077412c0 -9.37331 2.1381168 -17.31485 6.414324 -23.824627c4.2953033 -6.5097694 10.366001 -11.349148 18.212093 -14.518131l0 0l-26.201363 121.90076c0.93543243 -0.11454773 2.2812939 -0.17181396 4.037588 -0.17181396c5.0398235 0 9.993742 0.99269104 14.861753 2.9780731c4.8680153 2.004486 9.382866 4.438492 13.544529 7.3020325c4.1807632 2.8826141 9.201492 6.6720276 15.062202 11.36824c7.846092 6.223419 14.317688 10.824158 19.41478 13.802246c5.1161957 2.9971619 10.308739 4.495743 15.577644 4.495743c4.8107376 0 8.829231 -2.4626312 12.055489 -7.387924c3.2262573 -4.9252777 5.307106 -11.673676 6.2425156 -20.245193l0 0c-4.5625687 1.8899231 -9.487846 2.8349 -14.775856 2.8349c-5.860718 0 -11.492348 -1.08815 -16.894867 -3.2644348c-5.3834457 -2.1762848 -11.883675 -5.316635 -19.500687 -9.421036c-4.9252853 -2.6917267 -9.125145 -4.829834 -12.599564 -6.414322c-3.4553413 -1.5845032 -6.8247795 -2.7871857 -10.10828 -3.6080627l27.089054 -126.31061c-3.0544434 -0.2481718 -5.4025497 -0.37225914 -7.0442963 -0.37225914z" fill-rule="evenodd"/><path stroke="#93c47d" stroke-width="1.0" stroke-linejoin="round" stroke-linecap="butt" d="m761.1905 10.892387l-27.08905 3.693963l-13.372742 87.96785l14.947693 0l25.5141 -91.66181zm-37.999146 105.37815c-3.8753052 0 -7.1875 1.3554153 -9.936462 4.066223c-2.7490234 2.6917267 -4.123474 5.965706 -4.123474 9.82193c0 3.8753357 1.3744507 7.1970367 4.123474 9.965118c2.7489624 2.748993 6.061157 4.1234894 9.936462 4.1234894c3.8753052 0 7.1588745 -1.3744965 9.850586 -4.1234894c2.7108154 -2.7680817 4.066223 -6.0897827 4.066223 -9.965118c0 -3.856224 -1.3554077 -7.1302032 -4.066223 -9.82193c-2.6917114 -2.7108078 -5.975281 -4.066223 -9.850586 -4.066223z" fill-rule="evenodd"/></g></svg>