<svg version="1.1" viewBox="0.0 0.0 209.1522309711286 205.35695538057743" fill="none" stroke="none" stroke-linecap="square" stroke-miterlimit="10" xmlns:xlink="http://www.w3.org/1999/xlink" xmlns="http://www.w3.org/2000/svg"><clipPath id="p.0"><path d="m0 0l209.15224 0l0 205.35695l-209.15224 0l0 -205.35695z" clip-rule="nonzero"/></clipPath><g clip-path="url(#p.0)"><path fill="#000000" fill-opacity="0.0" d="m0 0l209.15224 0l0 205.35695l-209.15224 0z" fill-rule="evenodd"/><path fill="#38761d" d="m135.68706 13.359579c-14.067001 0 -25.660149 2.1537056 -34.77944 6.461117c-9.119293 4.2880077 -15.764732 9.914808 -19.936325 16.880392c-4.1715927 6.9655876 -6.2573853 14.687878 -6.2573853 23.166885c0 6.1894836 1.5716248 10.632713 4.7148666 13.329689c3.162651 2.6775818 7.9648285 4.0163727 14.406548 4.0163727c0 -0.25224304 -0.41716003 -1.2417831 -1.2514801 -2.9686203c-0.83432007 -1.7268448 -1.2514801 -4.7924805 -1.2514801 -9.196907c0 -13.484909 2.9492188 -22.875843 8.847656 -28.172794c5.917839 -5.2969513 14.173706 -7.945427 24.767609 -7.945427l2.1537094 0l-25.3788 118.366486l25.72805 0l24.68029 -114.786674c7.043213 1.4164009 12.466278 2.4253426 16.26921 3.0268288c3.822342 0.60149 7.644684 0.9022293 11.467026 0.9022293c7.2566223 0 12.72821 -1.8432617 16.414734 -5.5297832c3.7059174 -3.705927 5.6849976 -9.43944 5.9372406 -17.200539l0 0c-6.2088776 2.5029554 -13.125961 3.7544317 -20.751251 3.7544317c-5.9566345 0 -12.757309 -0.649992 -20.401993 -1.949976c-9.061081 -1.4358044 -17.520676 -2.1537056 -25.378784 -2.1537056zm-65.995804 1.6007271c-9.7595825 0 -19.52887 2.2410183 -29.307854 6.723053c-9.778988 4.462635 -17.802027 10.30286 -24.069113 17.520685c-6.2476892 7.217823 -9.37153 14.639374 -9.37153 22.264656c0 6.18948 1.5716228 10.6327095 4.7148685 13.329693c3.162651 2.6775742 7.9648314 4.016365 14.406543 4.016365c0 -0.23283386 -0.41716003 -1.2126694 -1.2514782 -2.9395142c-0.83431625 -1.7462463 -1.2514763 -4.8215866 -1.2514763 -9.226006c0 -9.526752 2.1731071 -17.598293 6.5193233 -24.214638c4.3656178 -6.616333 10.535696 -11.534933 18.510225 -14.755791l0 0l-26.630276 123.89626c0.950737 -0.1164093 2.3186302 -0.17462158 4.1036816 -0.17462158c5.122326 0 10.157339 1.0089417 15.105043 3.026825c4.9477005 2.0372925 9.536449 4.511139 13.766251 7.4215546c4.2492027 2.9298096 9.352127 6.7812653 15.308769 11.554337c7.974533 6.325302 14.552063 11.001358 19.732597 14.028198c5.199936 3.0462189 10.477486 4.569336 15.832649 4.569336c4.889488 0 8.97377 -2.502945 12.2528305 -7.5088654c3.279068 -5.005905 5.3939667 -11.864777 6.3447037 -20.576614l0 0c-4.6372604 1.9208832 -9.643166 2.8813171 -15.017731 2.8813171c-5.956642 0 -11.680458 -1.105957 -17.171432 -3.317871c-5.4715805 -2.211914 -12.078217 -5.4036713 -19.819908 -9.575256c-5.005913 -2.735794 -9.274517 -4.90889 -12.80582 -6.519333c-3.511898 -1.6104279 -6.9364815 -2.8328094 -10.273754 -3.6671143l27.532501 -128.37831c-3.1044388 -0.2522354 -5.4909744 -0.37835407 -7.1596146 -0.37835407z" fill-rule="evenodd"/><path stroke="#6aa84f" stroke-width="1.0" stroke-linejoin="round" stroke-linecap="butt" d="m135.68706 13.359579c-14.067001 0 -25.660149 2.1537056 -34.77944 6.461117c-9.119293 4.2880077 -15.764732 9.914808 -19.936325 16.880392c-4.1715927 6.9655876 -6.2573853 14.687878 -6.2573853 23.166885c0 6.1894836 1.5716248 10.632713 4.7148666 13.329689c3.162651 2.6775818 7.9648285 4.0163727 14.406548 4.0163727c0 -0.25224304 -0.41716003 -1.2417831 -1.2514801 -2.9686203c-0.83432007 -1.7268448 -1.2514801 -4.7924805 -1.2514801 -9.196907c0 -13.484909 2.9492188 -22.875843 8.847656 -28.172794c5.917839 -5.2969513 14.173706 -7.945427 24.767609 -7.945427l2.1537094 0l-25.3788 118.366486l25.72805 0l24.68029 -114.786674c7.043213 1.4164009 12.466278 2.4253426 16.26921 3.0268288c3.822342 0.60149 7.644684 0.9022293 11.467026 0.9022293c7.2566223 0 12.72821 -1.8432617 16.414734 -5.5297832c3.7059174 -3.705927 5.6849976 -9.43944 5.9372406 -17.200539l0 0c-6.2088776 2.5029554 -13.125961 3.7544317 -20.751251 3.7544317c-5.9566345 0 -12.757309 -0.649992 -20.401993 -1.949976c-9.061081 -1.4358044 -17.520676 -2.1537056 -25.378784 -2.1537056zm-65.995804 1.6007271c-9.7595825 0 -19.52887 2.2410183 -29.307854 6.723053c-9.778988 4.462635 -17.802027 10.30286 -24.069113 17.520685c-6.2476892 7.217823 -9.37153 14.639374 -9.37153 22.264656c0 6.18948 1.5716228 10.6327095 4.7148685 13.329693c3.162651 2.6775742 7.9648314 4.016365 14.406543 4.016365c0 -0.23283386 -0.41716003 -1.2126694 -1.2514782 -2.9395142c-0.83431625 -1.7462463 -1.2514763 -4.8215866 -1.2514763 -9.226006c0 -9.526752 2.1731071 -17.598293 6.5193233 -24.214638c4.3656178 -6.616333 10.535696 -11.534933 18.510225 -14.755791l0 0l-26.630276 123.89626c0.950737 -0.1164093 2.3186302 -0.17462158 4.1036816 -0.17462158c5.122326 0 10.157339 1.0089417 15.105043 3.026825c4.9477005 2.0372925 9.536449 4.511139 13.766251 7.4215546c4.2492027 2.9298096 9.352127 6.7812653 15.308769 11.554337c7.974533 6.325302 14.552063 11.001358 19.732597 14.028198c5.199936 3.0462189 10.477486 4.569336 15.832649 4.569336c4.889488 0 8.97377 -2.502945 12.2528305 -7.5088654c3.279068 -5.005905 5.3939667 -11.864777 6.3447037 -20.576614l0 0c-4.6372604 1.9208832 -9.643166 2.8813171 -15.017731 2.8813171c-5.956642 0 -11.680458 -1.105957 -17.171432 -3.317871c-5.4715805 -2.211914 -12.078217 -5.4036713 -19.819908 -9.575256c-5.005913 -2.735794 -9.274517 -4.90889 -12.80582 -6.519333c-3.511898 -1.6104279 -6.9364815 -2.8328094 -10.273754 -3.6671143l27.532501 -128.37831c-3.1044388 -0.2522354 -5.4909744 -0.37835407 -7.1596146 -0.37835407z" fill-rule="evenodd"/><path fill="#38761d" d="m202.19171 45.70866l-27.532501 3.7544327l-13.591629 89.40788l15.192352 0l25.931778 -93.16231zm-38.62117 107.10318c-3.9387665 0 -7.30513 1.3776093 -10.099136 4.132782c-2.793991 2.735794 -4.1909943 6.0633698 -4.1909943 9.982727c0 3.9387512 1.3970032 7.3148346 4.1909943 10.128235c2.7940063 2.793991 6.16037 4.1909943 10.099136 4.1909943c3.9387512 0 7.2760315 -1.3970032 10.01181 -4.1909943c2.7552032 -2.8134003 4.1327972 -6.1894836 4.1327972 -10.128235c0 -3.9193573 -1.377594 -7.246933 -4.1327972 -9.982727c-2.7357788 -2.7551727 -6.073059 -4.132782 -10.01181 -4.132782z" fill-rule="evenodd"/><path stroke="#6aa84f" stroke-width="1.0" stroke-linejoin="round" stroke-linecap="butt" d="m202.19171 45.70866l-27.532501 3.7544327l-13.591629 89.40788l15.192352 0l25.931778 -93.16231zm-38.62117 107.10318c-3.9387665 0 -7.30513 1.3776093 -10.099136 4.132782c-2.793991 2.735794 -4.1909943 6.0633698 -4.1909943 9.982727c0 3.9387512 1.3970032 7.3148346 4.1909943 10.128235c2.7940063 2.793991 6.16037 4.1909943 10.099136 4.1909943c3.9387512 0 7.2760315 -1.3970032 10.01181 -4.1909943c2.7552032 -2.8134003 4.1327972 -6.1894836 4.1327972 -10.128235c0 -3.9193573 -1.377594 -7.246933 -4.1327972 -9.982727c-2.7357788 -2.7551727 -6.073059 -4.132782 -10.01181 -4.132782z" fill-rule="evenodd"/></g></svg>